<?xml version="1.0" encoding="UTF-8" standalone="no"?>
<!-- Created with Inkscape (http://www.inkscape.org/) -->

<svg
   xmlns:dc="http://purl.org/dc/elements/1.1/"
   xmlns:cc="http://creativecommons.org/ns#"
   xmlns:rdf="http://www.w3.org/1999/02/22-rdf-syntax-ns#"
   xmlns:svg="http://www.w3.org/2000/svg"
   xmlns="http://www.w3.org/2000/svg"
   xmlns:sodipodi="http://sodipodi.sourceforge.net/DTD/sodipodi-0.dtd"
   xmlns:inkscape="http://www.inkscape.org/namespaces/inkscape"
   width="100"
   height="32"
   viewBox="0 0 100 32"
   id="svg2"
   version="1.1"
   inkscape:version="0.91 r"
   sodipodi:docname="drawing.svg">
  <defs
     id="defs4" />
  <sodipodi:namedview
     id="base"
     pagecolor="#ffffff"
     bordercolor="#666666"
     borderopacity="1.0"
     inkscape:pageopacity="0.0"
     inkscape:pageshadow="2"
     inkscape:zoom="3.9999998"
     inkscape:cx="35.67187"
     inkscape:cy="17.135118"
     inkscape:document-units="px"
     inkscape:current-layer="layer3"
     showgrid="false"
     units="px"
     inkscape:window-width="1600"
     inkscape:window-height="827"
     inkscape:window-x="0"
     inkscape:window-y="27"
     inkscape:window-maximized="1" />
  <metadata
     id="metadata7">
    <rdf:RDF>
      <cc:Work
         rdf:about="">
        <dc:format>image/svg+xml</dc:format>
        <dc:type
           rdf:resource="http://purl.org/dc/dcmitype/StillImage" />
        <dc:title />
      </cc:Work>
    </rdf:RDF>
  </metadata>
  <g
     inkscape:label="Layer 1"
     inkscape:groupmode="layer"
     id="layer1"
     transform="translate(0,-1020.3622)"
     style="display:inline">
    <rect
       style="fill:#685c79;fill-opacity:1;stroke:none;stroke-width:6;stroke-linecap:butt;stroke-miterlimit:4;stroke-dasharray:none;stroke-dashoffset:0;stroke-opacity:1"
       id="rect4577"
       width="32.003426"
       height="32.003426"
       x="0"
       y="1020.3588" />
    <path
       style="fill:#da727e;fill-opacity:1;stroke:none;stroke-width:6;stroke-linecap:butt;stroke-miterlimit:4;stroke-dasharray:none;stroke-dashoffset:0;stroke-opacity:1"
       d="m 14.674037,1037.7731 17.32939,-15.8232 0,30.4123 -32.003427,0 z"
       id="rect4583"
       inkscape:connector-curvature="0"
       sodipodi:nodetypes="ccccc" />
    <path
       style="fill:#ac6c82;fill-opacity:1;stroke:none;stroke-width:6;stroke-linecap:butt;stroke-miterlimit:4;stroke-dasharray:none;stroke-dashoffset:0;stroke-opacity:1"
       d="M 32.003427,1021.1538 0,1044.1992 l 0,8.163 9.913171,0 22.090256,-26.7148 0,-4.4936 z"
       id="rect4559"
       inkscape:connector-curvature="0" />
  </g>
  <g
     inkscape:groupmode="layer"
     id="layer3"
     inkscape:label="Layer 2"
     style="display:inline"
     transform="translate(0,-32)">
    <path
       style="color:#000000;font-style:normal;font-variant:normal;font-weight:normal;font-stretch:normal;font-size:medium;line-height:normal;font-family:sans-serif;text-indent:0;text-align:start;text-decoration:none;text-decoration-line:none;text-decoration-style:solid;text-decoration-color:#000000;letter-spacing:normal;word-spacing:normal;text-transform:none;direction:ltr;block-progression:tb;writing-mode:lr-tb;baseline-shift:baseline;text-anchor:start;white-space:normal;clip-rule:nonzero;display:inline;overflow:visible;visibility:visible;opacity:1;isolation:auto;mix-blend-mode:normal;color-interpolation:sRGB;color-interpolation-filters:linearRGB;solid-color:#000000;solid-opacity:1;fill:#ffffff;fill-opacity:1;fill-rule:evenodd;stroke:none;stroke-width:6;stroke-linecap:round;stroke-linejoin:miter;stroke-miterlimit:4;stroke-dasharray:none;stroke-dashoffset:0;stroke-opacity:1;color-rendering:auto;image-rendering:auto;shape-rendering:auto;text-rendering:auto;enable-background:accumulate"
       d="m 3.948665,40.508227 a 1.5003106,1.5003106 0 1 0 0,3.000321 l 15.251633,0 0,17.37686 a 1.5003106,1.5003106 0 1 0 3.000321,0 l 0,-20.377181 -18.251954,0 z"
       id="path4382-6"
       inkscape:connector-curvature="0" />
    <path
       style="display:inline;fill:none;fill-rule:evenodd;stroke:#d48400;stroke-width:3.00032115;stroke-linecap:round;stroke-linejoin:miter;stroke-miterlimit:4;stroke-dasharray:none;stroke-opacity:1"
       d="m 16.751793,54.999056 11.188698,0 0,-19.627121 -16.10972,0 0,15.456775"
       id="path4420"
       inkscape:connector-curvature="0"
       sodipodi:nodetypes="ccccc" />
    <path
       style="color:#000000;font-style:normal;font-variant:normal;font-weight:normal;font-stretch:normal;font-size:medium;line-height:normal;font-family:sans-serif;text-indent:0;text-align:start;text-decoration:none;text-decoration-line:none;text-decoration-style:solid;text-decoration-color:#000000;letter-spacing:normal;word-spacing:normal;text-transform:none;direction:ltr;block-progression:tb;writing-mode:lr-tb;baseline-shift:baseline;text-anchor:start;white-space:normal;clip-rule:nonzero;display:inline;overflow:visible;visibility:visible;opacity:1;isolation:auto;mix-blend-mode:normal;color-interpolation:sRGB;color-interpolation-filters:linearRGB;solid-color:#000000;solid-opacity:1;fill:#ffffff;fill-opacity:1;fill-rule:evenodd;stroke:none;stroke-width:6;stroke-linecap:round;stroke-linejoin:miter;stroke-miterlimit:4;stroke-dasharray:none;stroke-dashoffset:0;stroke-opacity:1;color-rendering:auto;image-rendering:auto;shape-rendering:auto;text-rendering:auto;enable-background:accumulate"
       d="m 2.4485044,40.508227 0,20.303932 a 1.5003106,1.5003106 0 1 0 3.000321,0 l 0,-17.303611 15.2516336,0 a 1.5003106,1.5003106 0 1 0 0,-3.000321 l -18.2519546,0 z"
       id="path4382-6-8"
       inkscape:connector-curvature="0" />
    <text
       xml:space="preserve"
       style="font-style:normal;font-variant:normal;font-weight:normal;font-stretch:normal;font-size:40px;line-height:125%;font-family:Pacifico;-inkscape-font-specification:'Pacifico, Normal';text-align:start;letter-spacing:0px;word-spacing:0px;writing-mode:lr-tb;text-anchor:start;fill:#000000;fill-opacity:1;stroke:none;stroke-width:1px;stroke-linecap:butt;stroke-linejoin:miter;stroke-opacity:1"
       x="36.500004"
       y="62.75"
       id="text4140"
       sodipodi:linespacing="125%"><tspan
         sodipodi:role="line"
         id="tspan4142"
         x="36.500004"
         y="62.75" /></text>
    <text
       xml:space="preserve"
       style="font-style:normal;font-variant:normal;font-weight:normal;font-stretch:normal;font-size:40px;line-height:125%;font-family:Pacifico;-inkscape-font-specification:'Pacifico, Normal';text-align:start;letter-spacing:0px;word-spacing:0px;writing-mode:lr-tb;text-anchor:start;fill:#000000;fill-opacity:1;stroke:none;stroke-width:1px;stroke-linecap:butt;stroke-linejoin:miter;stroke-opacity:1"
       x="36.000004"
       y="54.25"
       id="text4144"
       sodipodi:linespacing="125%"><tspan
         sodipodi:role="line"
         id="tspan4146"
         x="36.000004"
         y="54.25" /></text>
    <g
       style="font-style:normal;font-variant:normal;font-weight:normal;font-stretch:normal;font-size:13.60288239px;line-height:125%;font-family:Pacifico;-inkscape-font-specification:'Pacifico, Normal';text-align:start;letter-spacing:0px;word-spacing:0px;writing-mode:lr-tb;text-anchor:start;fill:#000000;fill-opacity:1;stroke:none;stroke-width:1px;stroke-linecap:butt;stroke-linejoin:miter;stroke-opacity:1"
       id="text4152">
      <path
         d="m 37.702653,50.950823 q -0.02657,0.199261 -0.126198,0.325459 -0.09963,0.126199 -0.239114,0.199261 -0.139482,0.07306 -0.298891,0.106273 -0.159409,0.02657 -0.305533,0.02657 -0.172693,0 -0.338744,-0.03321 -0.159409,-0.03985 -0.285608,-0.112915 -0.126198,-0.0797 -0.19926,-0.185977 -0.07306,-0.112914 -0.07306,-0.252397 0,-0.272323 0.02657,-0.498152 0.02657,-0.232472 0.0797,-0.464943 0.185977,-0.777118 0.325459,-1.441321 0.139483,-0.670845 0.239113,-1.268628 0.09963,-0.597783 0.172693,-1.155714 0.07306,-0.564572 0.126199,-1.129145 0.05978,-0.571215 0.106272,-1.17564 0.0465,-0.604425 0.09963,-1.295196 0,-0.05978 0,-0.152767 0,-0.09299 -0.01993,-0.172693 -0.01993,-0.08635 -0.07306,-0.146124 -0.04649,-0.05978 -0.146124,-0.05978 -0.159409,0 -0.39188,0.112915 -0.225829,0.106272 -0.478227,0.292249 -0.252397,0.185977 -0.504794,0.438374 -0.252397,0.245756 -0.464942,0.531363 -0.03985,0.09963 -0.126199,0.146125 -0.08635,0.03985 -0.192619,0.03985 -0.03321,0 -0.06642,-0.05314 -0.03985,-0.05978 -0.06642,-0.139483 -0.03321,-0.0797 -0.05314,-0.166051 -0.01993,-0.09299 -0.01993,-0.166051 0,-0.03985 0.02657,-0.06642 0.239113,-0.78376 0.538005,-1.30848 0.305533,-0.531363 0.637635,-0.843539 0.338744,-0.318817 0.684129,-0.451658 0.352028,-0.13284 0.670846,-0.13284 0.411806,0 0.684129,0.159408 0.272323,0.152767 0.431732,0.438375 0.159409,0.278965 0.219187,0.677487 0.06642,0.398522 0.06642,0.88339 0,0.371954 -0.05978,0.870106 -0.05978,0.498153 -0.152767,1.049442 -0.08635,0.544646 -0.192618,1.095935 -0.106273,0.551289 -0.205903,1.029515 0.212545,-0.88339 0.498152,-1.693718 0.292249,-0.81697 0.630993,-1.521026 0.345386,-0.710697 0.730624,-1.281912 0.385237,-0.577857 0.790401,-0.989663 0.411806,-0.411806 0.830255,-0.637635 0.418448,-0.225829 0.830254,-0.225829 0.305533,0 0.564572,0.132841 0.25904,0.13284 0.445016,0.411806 0.185977,0.278965 0.285608,0.704055 0.106272,0.42509 0.106272,1.009589 0,0.05314 -0.01328,0.166051 -0.0066,0.112914 -0.02657,0.259039 -0.01328,0.146125 -0.03985,0.318818 -0.01993,0.16605 -0.03985,0.332101 -0.05314,0.398522 -0.112915,0.863464 l 0.139483,-0.0066 q 0.259039,-0.98302 0.637635,-1.76678 0.378596,-0.78376 0.85018,-1.328407 0.471585,-0.551288 1.016231,-0.843538 0.544647,-0.292249 1.129146,-0.292249 0.405164,0 0.717339,0.239113 0.318818,0.239113 0.531363,0.650919 0.212545,0.405164 0.325459,0.956453 0.112915,0.544646 0.112915,1.155713 0,0.571215 -0.0797,1.17564 -0.07306,0.597783 -0.185977,1.188924 -0.112915,0.584499 -0.245756,1.149072 -0.126198,0.564572 -0.239113,1.069367 -0.112914,0.504794 -0.192619,0.936526 -0.07306,0.42509 -0.07306,0.737266 0,0.39188 0.139483,0.571215 0.146124,0.172693 0.418448,0.172693 0.152766,0 0.318817,-0.0797 0.172693,-0.08635 0.338744,-0.219187 0.172693,-0.139483 0.338744,-0.312175 0.16605,-0.179335 0.318817,-0.365312 0.352028,-0.42509 0.697413,-0.976379 0,0.0066 0.05978,0.139483 0.04649,0.112914 0.152767,0.385238 0.106272,0.272323 0.298891,0.783759 -0.332102,0.584499 -0.684129,0.989663 -0.352028,0.405164 -0.71734,0.664203 -0.365312,0.252398 -0.743907,0.365312 -0.371954,0.112915 -0.743908,0.112915 -0.35867,0 -0.704056,-0.126199 -0.338743,-0.126198 -0.604424,-0.371954 -0.265682,-0.252397 -0.425091,-0.617709 -0.159408,-0.371953 -0.159408,-0.85018 0,-0.05314 0,-0.112914 0.0066,-0.05978 0.01328,-0.119557 0.02657,-0.445016 0.112914,-0.943169 0.08635,-0.504794 0.192619,-1.036157 0.112915,-0.531362 0.232471,-1.082651 0.119557,-0.551289 0.219187,-1.095935 0.09963,-0.551289 0.166051,-1.082652 0.06642,-0.538004 0.06642,-1.029515 0,-0.298891 -0.01993,-0.538004 -0.01993,-0.245755 -0.0797,-0.411806 -0.05978,-0.172693 -0.172693,-0.265681 -0.112914,-0.09299 -0.298891,-0.09299 -0.352028,0 -0.664203,0.245755 -0.312176,0.245755 -0.591141,0.677488 -0.278966,0.431732 -0.524721,1.022873 -0.239113,0.59114 -0.4583,1.281912 -0.212545,0.684129 -0.398522,1.441321 -0.185977,0.75055 -0.345386,1.514383 -0.159409,0.763834 -0.298891,1.507742 -0.139483,0.743907 -0.25904,1.40811 -0.05314,0.185977 -0.16605,0.318818 -0.106273,0.126199 -0.252398,0.205903 -0.139482,0.0797 -0.298891,0.119557 -0.159409,0.03321 -0.318818,0.03321 -0.139482,0 -0.278965,-0.05314 -0.132841,-0.05314 -0.239113,-0.166051 -0.09963,-0.119557 -0.166051,-0.298892 -0.05978,-0.179335 -0.05978,-0.438374 0,-0.172693 0.0797,-0.591141 0.0797,-0.42509 0.199261,-1.009589 0.126199,-0.591141 0.265681,-1.288554 0.146125,-0.704055 0.265682,-1.428037 0.126198,-0.730624 0.205903,-1.441321 0.0797,-0.710697 0.0797,-1.30848 0,-0.411806 -0.01993,-0.737266 -0.01993,-0.32546 -0.09299,-0.551289 -0.07306,-0.225829 -0.212545,-0.345385 -0.132841,-0.119557 -0.35867,-0.119557 -0.185977,0 -0.42509,0.252397 -0.239113,0.252398 -0.518079,0.697414 -0.272323,0.445016 -0.564573,1.049441 -0.292249,0.597783 -0.584498,1.295196 -0.285608,0.697414 -0.557931,1.461247 -0.265681,0.757192 -0.491511,1.521026 -0.225829,0.757191 -0.398521,1.487815 -0.172693,0.723982 -0.25904,1.361617 z"
         style=""
         id="path4147" />
      <path
         d="m 54.028769,46.480735 q 0.192619,0.385238 0.285607,0.81697 0.09963,0.42509 0.09963,0.963094 0,0.39188 -0.08635,0.790402 -0.08635,0.398522 -0.252397,0.770476 -0.159409,0.371954 -0.398522,0.697414 -0.232471,0.325459 -0.538004,0.564572 -0.298892,0.239113 -0.657562,0.378596 -0.358669,0.139483 -0.763833,0.139483 -0.584499,0 -1.002947,-0.252397 -0.411806,-0.25904 -0.677488,-0.670846 -0.265681,-0.411806 -0.391879,-0.929884 -0.119557,-0.518079 -0.119557,-1.049441 0,-0.876749 0.219187,-1.507742 0.219187,-0.637635 0.624351,-1.102577 0.411806,-0.471584 1.002947,-0.737266 0.591141,-0.272323 1.328406,-0.272323 0.630994,0 1.182282,0.199261 0.551289,0.192619 1.029515,0.52472 0.484869,0.32546 0.896675,0.823613 0.418448,0.498152 0.777117,0.94981 l -0.126198,0.936527 Q 56.280418,48.274084 55.974884,47.995118 55.669351,47.716153 55.323965,47.377409 54.985222,47.038666 54.65312,46.806194 54.321018,46.567081 54.081905,46.407672 l -0.05314,0.07306 z m -2.052388,3.845737 q 0.225829,0 0.438374,-0.22583 0.212545,-0.232471 0.371954,-0.577856 0.159409,-0.352028 0.252397,-0.843538 0.09963,-0.498153 0.09963,-0.883391 0,-0.305533 -0.0465,-0.564573 -0.04649,-0.265681 -0.139482,-0.4583 -0.09299,-0.192619 -0.239113,-0.305533 -0.146125,-0.112915 -0.352028,-0.112915 -0.272324,0 -0.518079,0.232471 -0.245755,0.232471 -0.431732,0.597783 -0.185977,0.35867 -0.292249,0.797044 -0.106273,0.438374 -0.106273,0.989663 0,0.278965 0.05314,0.524721 0.05314,0.245755 0.166051,0.431732 0.112915,0.179334 0.298892,0.292249 0.185977,0.106273 0.445016,0.106273 z"
         style=""
         id="path4149" />
      <path
         d="m 55.689276,50.213557 q 0,-0.438374 0.05314,-1.009589 0.05314,-0.577857 0.132841,-1.261986 0.0797,-0.690771 0.179335,-1.24206 0.09963,-0.551289 0.192619,-0.943169 0.07306,-0.305533 0.278965,-0.511436 0.212545,-0.205903 0.571215,-0.205903 0.35867,0 0.498153,0.219187 0.139482,0.219187 0.139482,0.584499 0,0.09963 -0.01993,0.272323 -0.01993,0.166051 -0.05314,0.371954 -0.02657,0.199261 -0.05978,0.418448 -0.03321,0.212545 -0.06642,0.49151 -0.02657,0.272324 -0.04649,0.411806 -0.01993,0.132841 -0.01993,0.179335 l 0.132841,0 q 0.03985,-0.07306 0.126198,-0.232471 0.08635,-0.166051 0.199261,-0.471584 0.112915,-0.305534 0.239113,-0.538005 0.132841,-0.239113 0.245756,-0.451658 0.112914,-0.219187 0.205903,-0.385238 0.09299,-0.166051 0.139482,-0.245755 0.212545,-0.35867 0.484869,-0.491511 0.272323,-0.13284 0.604425,-0.13284 0.332101,0 0.52472,0.278965 0.199261,0.278965 0.199261,0.770476 0,0.07306 -0.03321,0.245755 -0.02657,0.172693 -0.07306,0.411806 -0.0465,0.239113 -0.106273,0.617709 -0.05314,0.378596 -0.09963,0.677487 -0.0465,0.298892 -0.0797,0.591141 -0.02657,0.29225 -0.02657,0.538005 0,0.411806 0.09963,0.677487 0.106273,0.265682 0.32546,0.265682 0.0797,0 0.225829,-0.05978 0.219187,-0.0797 0.278966,-0.139482 0.292249,-0.22583 0.305533,-0.219188 0.01993,0.0066 0.445016,-0.265681 0.531363,-0.338743 1.268628,-0.830254 l -0.0066,1.487815 -0.332101,0.252398 q -0.03985,0.03321 -0.624351,0.345385 -0.843538,0.451659 -1.056083,0.544647 -0.518079,0.232471 -0.644278,0.265681 -0.332101,0.106273 -0.697413,0.106273 -0.365312,0 -0.617709,-0.524721 -0.245755,-0.531362 -0.245755,-1.547593 0,-0.398522 0.05314,-0.856823 0.05314,-0.464942 0.132841,-0.996304 l -0.106273,0 -1.740212,3.453856 q -0.139483,0.278966 -0.298892,0.371954 -0.166051,0.09963 -0.385238,0.09963 -0.272323,0 -0.438374,-0.112915 -0.166051,-0.119556 -0.259039,-0.312175 -0.08635,-0.199261 -0.119557,-0.445016 -0.02657,-0.252398 -0.02657,-0.518079 z"
         style=""
         id="path4151" />
      <path
         d="m 66.183689,50.186989 q -0.239114,0.219187 -0.597783,0.471584 -0.352028,0.245755 -0.763834,0.4583 -0.411806,0.205903 -0.843538,0.345386 -0.42509,0.139483 -0.810328,0.139483 -0.345386,0 -0.584499,-0.09299 -0.232471,-0.09963 -0.378596,-0.272323 -0.146125,-0.172693 -0.212545,-0.418448 -0.05978,-0.252397 -0.05978,-0.551289 0,-0.418448 0.09299,-0.976378 0.185977,-1.07601 0.239113,-1.20885 0.09299,-0.29225 0.371954,-1.295197 0.225829,-0.836896 0.278966,-1.089293 0.03321,-0.166051 0.185976,-0.298891 0.139483,-0.119557 0.312176,-0.192619 0.179335,-0.0797 0.365312,-0.112915 0.192619,-0.03985 0.345385,-0.03985 0.278966,0 0.378596,0.106272 0.09963,0.09963 0.09963,0.272324 0,0.146124 -0.06642,0.42509 -0.06642,0.272323 -0.16605,0.624351 -0.09963,0.345385 -0.252398,0.836896 -0.152766,0.484868 -0.252397,0.890032 -0.09963,0.398522 -0.166051,0.78376 -0.06642,0.378596 -0.06642,0.684129 0,0.298892 0.06642,0.478227 0.06642,0.172693 0.272324,0.172693 0.239113,0 0.531362,-0.166051 0.29225,-0.166051 0.591141,-0.398522 0.298892,-0.239113 0.584499,-0.491511 0.285607,-0.252397 0.504795,-0.431732 l 0,1.348333 z M 63.2147,43.226139 q 0,-0.152767 0.06642,-0.345386 0.06642,-0.192619 0.212545,-0.35867 0.152767,-0.172692 0.398522,-0.285607 0.252398,-0.119556 0.624351,-0.119556 0.232472,0 0.438375,0.05314 0.205903,0.05314 0.358669,0.166051 0.152767,0.106272 0.239113,0.285607 0.09299,0.179335 0.09299,0.42509 0,0.225829 -0.07306,0.438374 -0.07306,0.212545 -0.232472,0.378596 -0.159408,0.166051 -0.405164,0.272323 -0.239113,0.09963 -0.577856,0.09963 -0.584499,0 -0.863465,-0.272323 Q 63.2147,43.684439 63.2147,43.226139 Z"
         style=""
         id="path4153" />
      <path
         d="m 71.258202,50.113927 q -0.637635,0.371953 -1.135787,0.650919 -0.498153,0.278965 -0.890033,0.464942 -0.385237,0.185977 -0.690771,0.278965 -0.298891,0.09299 -0.544647,0.09299 -0.504794,0 -0.890032,-0.305534 -0.385238,-0.305533 -0.644277,-0.876748 -0.259039,-0.577857 -0.39188,-1.394827 -0.126199,-0.81697 -0.126199,-1.839843 0,-0.398522 0.03321,-0.85018 0.03321,-0.451658 0.09299,-0.896674 -0.199261,-0.02657 -0.312176,-0.0465 -0.106272,-0.02657 -0.232471,-0.04649 -0.119556,-0.02657 -0.312175,-0.05314 -0.185977,-0.02657 -0.544647,-0.06642 -0.159409,-0.01993 -0.245755,-0.07306 -0.08635,-0.05978 -0.126199,-0.13284 -0.03985,-0.07971 -0.04649,-0.159409 -0.0066,-0.08635 -0.0066,-0.146125 0,-0.13284 0.132841,-0.199261 0.126198,-0.07306 0.332101,-0.106272 0.199261,-0.03321 0.438374,-0.03321 0.245756,-0.0066 0.464943,0 0.225829,0.0066 0.398522,0.01328 0.179335,0 0.245755,-0.01328 0.179335,-0.896675 0.451658,-1.733571 0.278965,-0.843538 0.617709,-1.494457 0.345386,-0.657561 0.75055,-1.049441 0.405164,-0.398522 0.85018,-0.398522 0.285607,0 0.518078,0.159408 0.239114,0.159409 0.405164,0.425091 0.166051,0.265681 0.252398,0.624351 0.09299,0.352027 0.09299,0.737265 0,0.32546 -0.09299,0.690772 -0.09299,0.358669 -0.252398,0.737265 -0.159408,0.371954 -0.378595,0.757192 -0.212545,0.385238 -0.451659,0.763834 0.05978,0.0066 0.199261,0.0066 0.139483,0 0.318818,0.01328 0.185977,0.0066 0.398522,0.01993 0.212545,0.0066 0.411806,0.01328 0.199261,0.0066 0.371954,0.01328 0.172693,0.0066 0.285607,0.01328 0.132841,0.0066 0.192619,0.132841 0.05978,0.126198 0.05978,0.318817 0,0.232471 -0.13284,0.378596 -0.132841,0.146125 -0.29225,0.146125 l -2.55054,0 q -0.192619,0.265681 -0.39188,0.52472 -0.192619,0.252398 -0.35867,0.458301 -0.02657,0.411806 -0.04649,0.810327 -0.0066,0.172693 -0.01328,0.35867 -0.0066,0.179335 -0.01328,0.35867 -0.0066,0.179335 -0.01328,0.345386 0,0.16605 0,0.305533 0,0.35867 0.06642,0.604425 0.06642,0.245755 0.192619,0.405164 0.126199,0.152767 0.305533,0.225829 0.185977,0.06642 0.411806,0.06642 0.139483,0 0.345386,-0.06642 0.212545,-0.06642 0.4583,-0.179335 0.252398,-0.119556 0.524721,-0.278965 0.278965,-0.159409 0.544647,-0.345386 0.272323,-0.192619 0.518078,-0.398522 0.245755,-0.212545 0.445016,-0.431732 l 0,1.700361 z m -2.12545,-8.408814 q 0,-0.07306 -0.01328,-0.159408 -0.0066,-0.09299 -0.03985,-0.172693 -0.03321,-0.07971 -0.106273,-0.132841 -0.06642,-0.05314 -0.192619,-0.05314 -0.172693,0 -0.352027,0.305533 -0.172693,0.305534 -0.338744,0.78376 -0.159409,0.471585 -0.305534,1.042799 -0.139482,0.571215 -0.259039,1.10922 0.09963,0.01328 0.199261,0.02657 0.09963,0.0066 0.205903,0.01993 0.199261,-0.338744 0.411806,-0.730624 0.219187,-0.398522 0.39188,-0.777117 0.172693,-0.385238 0.285607,-0.71734 0.112915,-0.332101 0.112915,-0.544647 z"
         style=""
         id="path4155" />
      <path
         d="m 74.831617,46.480735 q 0.192619,0.385238 0.285607,0.81697 0.09963,0.42509 0.09963,0.963094 0,0.39188 -0.08635,0.790402 -0.08635,0.398522 -0.252397,0.770476 -0.159409,0.371954 -0.398522,0.697414 -0.232471,0.325459 -0.538005,0.564572 -0.298891,0.239113 -0.657561,0.378596 -0.358669,0.139483 -0.763833,0.139483 -0.584499,0 -1.002947,-0.252397 -0.411806,-0.25904 -0.677488,-0.670846 -0.265681,-0.411806 -0.39188,-0.929884 -0.119556,-0.518079 -0.119556,-1.049441 0,-0.876749 0.219187,-1.507742 0.219187,-0.637635 0.624351,-1.102577 0.411806,-0.471584 1.002947,-0.737266 0.591141,-0.272323 1.328406,-0.272323 0.630993,0 1.182282,0.199261 0.551289,0.192619 1.029515,0.52472 0.484868,0.32546 0.896674,0.823613 0.418449,0.498152 0.777118,0.94981 l -0.126198,0.936527 q -0.179335,-0.239113 -0.484869,-0.518079 -0.305533,-0.278965 -0.650919,-0.617709 -0.338744,-0.338743 -0.670845,-0.571215 -0.332102,-0.239113 -0.571215,-0.398522 l -0.05314,0.07306 z m -2.052388,3.845737 q 0.225829,0 0.438374,-0.22583 0.212545,-0.232471 0.371954,-0.577856 0.159409,-0.352028 0.252397,-0.843538 0.09963,-0.498153 0.09963,-0.883391 0,-0.305533 -0.04649,-0.564573 -0.04649,-0.265681 -0.139482,-0.4583 -0.09299,-0.192619 -0.239114,-0.305533 -0.146124,-0.112915 -0.352027,-0.112915 -0.272324,0 -0.518079,0.232471 -0.245755,0.232471 -0.431732,0.597783 -0.185977,0.35867 -0.292249,0.797044 -0.106273,0.438374 -0.106273,0.989663 0,0.278965 0.05314,0.524721 0.05314,0.245755 0.166051,0.431732 0.112915,0.179334 0.298892,0.292249 0.185977,0.106273 0.445016,0.106273 z"
         style=""
         id="path4157" />
      <path
         d="m 76.492125,50.213557 q 0,-0.292249 0.03321,-0.677487 0.03321,-0.39188 0.08635,-0.823612 0.05978,-0.431732 0.13284,-0.876749 0.0797,-0.451658 0.199261,-0.956452 0.119557,-0.511437 0.205903,-0.85018 0.08635,-0.338744 0.172693,-0.557931 0.05314,-0.146125 0.106273,-0.232471 0.05314,-0.08635 0.119556,-0.132841 0.07306,-0.05314 0.172693,-0.06642 0.106273,-0.01993 0.259039,-0.01993 0.172693,0 0.265682,0.01993 0.09963,0.01328 0.146124,0.0797 0.0465,0.05978 0.05314,0.179335 0.01328,0.119557 0.01328,0.32546 0,0.245755 -0.03321,0.697413 -0.03321,0.451658 -0.01993,0.790402 l 0.07306,0 q 0.13284,-0.265681 0.332101,-0.697414 0.199261,-0.431732 0.418448,-0.717339 0.219187,-0.285607 0.498153,-0.478226 0.278965,-0.199261 0.644277,-0.199261 0.126199,0 0.245755,0.04649 0.119557,0.03985 0.205903,0.119556 0.09299,0.0797 0.146125,0.199261 0.05314,0.112915 0.05314,0.25904 0,0.112914 -0.03321,0.318817 -0.03321,0.199261 -0.106273,0.524721 -0.07306,0.325459 -0.106272,0.538004 -0.03321,0.205903 -0.03321,0.345386 0,0.239113 0.04649,0.398522 0.04649,0.159409 0.119557,0.259039 0.0797,0.09299 0.172692,0.132841 0.09963,0.03985 0.205903,0.03985 0.298892,0 0.617709,-0.13284 0.318818,-0.132841 0.584499,-0.298892 0.312176,-0.192619 0.611067,-0.438374 l -0.09963,1.554236 q -0.172693,0.112914 -0.39188,0.252397 -0.219187,0.139482 -0.471584,0.265681 -0.245756,0.119557 -0.518079,0.205903 -0.265681,0.0797 -0.544647,0.0797 -0.498152,0 -0.803686,-0.199261 -0.305533,-0.205903 -0.484868,-0.531362 -0.179335,-0.332102 -0.265681,-0.737266 -0.08635,-0.411806 -0.139483,-0.830254 l -0.106272,0 -1.188924,3.314374 q -0.09299,0.25904 -0.179335,0.431733 -0.0797,0.16605 -0.166051,0.272323 -0.08635,0.106272 -0.185977,0.152767 -0.09963,0.03985 -0.219187,0.03985 -0.272323,0 -0.438374,-0.112915 -0.166051,-0.119556 -0.259039,-0.312175 -0.08635,-0.199261 -0.119557,-0.445016 -0.02657,-0.252398 -0.02657,-0.518079 z"
         style=""
         id="path4159" />
      <path
         d="m 86.269197,50.186989 q -0.239113,0.219187 -0.597783,0.471584 -0.352028,0.245755 -0.763834,0.4583 -0.411806,0.205903 -0.843538,0.345386 -0.42509,0.139483 -0.810328,0.139483 -0.345386,0 -0.584499,-0.09299 -0.232471,-0.09963 -0.378596,-0.272323 -0.146124,-0.172693 -0.212545,-0.418448 -0.05978,-0.252397 -0.05978,-0.551289 0,-0.418448 0.09299,-0.976378 0.185976,-1.07601 0.239113,-1.20885 0.09299,-0.29225 0.371954,-1.295197 0.225829,-0.836896 0.278965,-1.089293 0.03321,-0.166051 0.185977,-0.298891 0.139483,-0.119557 0.312175,-0.192619 0.179335,-0.0797 0.365312,-0.112915 0.192619,-0.03985 0.345386,-0.03985 0.278965,0 0.378596,0.106272 0.09963,0.09963 0.09963,0.272324 0,0.146124 -0.06642,0.42509 -0.06642,0.272323 -0.166051,0.624351 -0.09963,0.345385 -0.252397,0.836896 -0.152767,0.484868 -0.252397,0.890032 -0.09963,0.398522 -0.166051,0.78376 -0.06642,0.378596 -0.06642,0.684129 0,0.298892 0.06642,0.478227 0.06642,0.172693 0.272323,0.172693 0.239113,0 0.531363,-0.166051 0.292249,-0.166051 0.591141,-0.398522 0.298891,-0.239113 0.584498,-0.491511 0.285608,-0.252397 0.504795,-0.431732 l 0,1.348333 z m -2.968989,-6.96085 q 0,-0.152767 0.06642,-0.345386 0.06642,-0.192619 0.212545,-0.35867 0.152766,-0.172692 0.398522,-0.285607 0.252397,-0.119556 0.624351,-0.119556 0.232471,0 0.438374,0.05314 0.205903,0.05314 0.35867,0.166051 0.152766,0.106272 0.239113,0.285607 0.09299,0.179335 0.09299,0.42509 0,0.225829 -0.07306,0.438374 -0.07306,0.212545 -0.232471,0.378596 -0.159409,0.166051 -0.405164,0.272323 -0.239113,0.09963 -0.577857,0.09963 -0.584499,0 -0.863464,-0.272323 -0.278966,-0.278966 -0.278966,-0.737266 z"
         style=""
         id="path4161" />
      <path
         d="m 85.817538,50.213557 q 0,-0.438374 0.05314,-1.009589 0.05314,-0.577857 0.132841,-1.261986 0.0797,-0.690771 0.179335,-1.24206 0.09963,-0.551289 0.192619,-0.943169 0.07306,-0.305533 0.278965,-0.511436 0.212545,-0.205903 0.571215,-0.205903 0.358669,0 0.498152,0.219187 0.139483,0.219187 0.139483,0.584499 0,0.09963 -0.01993,0.272323 -0.01993,0.166051 -0.05314,0.371954 -0.02657,0.199261 -0.05978,0.418448 -0.03321,0.212545 -0.06642,0.49151 -0.02657,0.272324 -0.04649,0.411806 -0.01993,0.132841 -0.01993,0.179335 l 0.132841,0 q 0.03985,-0.07306 0.126199,-0.232471 0.08635,-0.166051 0.199261,-0.471584 0.112914,-0.305534 0.239113,-0.538005 0.132841,-0.239113 0.245755,-0.451658 0.112915,-0.219187 0.205903,-0.385238 0.09299,-0.166051 0.139483,-0.245755 0.212545,-0.35867 0.484868,-0.491511 0.272323,-0.13284 0.604425,-0.13284 0.332102,0 0.524721,0.278965 0.199261,0.278965 0.199261,0.770476 0,0.07306 -0.03321,0.245755 -0.02657,0.172693 -0.07306,0.411806 -0.04649,0.239113 -0.106272,0.617709 -0.05314,0.378596 -0.09963,0.677487 -0.04649,0.298892 -0.0797,0.591141 -0.02657,0.29225 -0.02657,0.538005 0,0.411806 0.09963,0.677487 0.106273,0.265682 0.32546,0.265682 0.0797,0 0.225829,-0.05978 0.219187,-0.0797 0.278965,-0.139482 0.29225,-0.22583 0.305534,-0.219188 0.01993,0.0066 0.445016,-0.265681 0.531362,-0.338743 1.268628,-0.830254 l -0.0066,1.487815 -0.332102,0.252398 q -0.03985,0.03321 -0.624351,0.345385 -0.843538,0.451659 -1.056083,0.544647 -0.518078,0.232471 -0.644277,0.265681 -0.332102,0.106273 -0.697413,0.106273 -0.365312,0 -0.617709,-0.524721 -0.245756,-0.531362 -0.245756,-1.547593 0,-0.398522 0.05314,-0.856823 0.05314,-0.464942 0.13284,-0.996304 l -0.106272,0 -1.740213,3.453856 q -0.139482,0.278966 -0.298891,0.371954 -0.166051,0.09963 -0.385238,0.09963 -0.272323,0 -0.438374,-0.112915 -0.166051,-0.119556 -0.25904,-0.312175 -0.08635,-0.199261 -0.119556,-0.445016 -0.02657,-0.252398 -0.02657,-0.518079 z"
         style=""
         id="path4163" />
      <path
         d="m 93.648493,57.765548 q 0.418448,0 0.770476,-0.132841 0.352028,-0.13284 0.604425,-0.345385 0.252397,-0.212545 0.451658,-0.524721 0.205903,-0.305534 0.332102,-0.617709 0.126198,-0.305534 0.219187,-0.677487 0.09963,-0.365312 0.146124,-0.657562 0.04649,-0.285607 0.07306,-0.597782 0.01328,-0.132841 0.03985,-0.378596 0.0797,-0.856822 0.146125,-1.168998 0.06642,-0.312176 0.245755,-0.431732 0.285607,-0.192619 0.923242,-0.604425 0.03321,-0.01993 0.09299,-0.05978 0.332102,-0.25904 0.810328,-0.737266 0.471584,-0.484868 0.657561,-0.856822 l -0.431732,-1.474531 q -0.989663,1.607371 -1.773423,2.198512 -0.219187,0.166051 -0.411806,0.278966 0.09963,-1.042799 0.146125,-1.693719 0.04649,-0.650919 0.192619,-1.182281 0.152767,-0.531363 0.172693,-0.890033 0.05978,-1.155713 -0.01993,-1.361616 -0.04649,-0.119557 -0.08635,-0.192619 -0.112914,-0.179335 -0.411806,-0.179335 l -0.292249,0.0066 q -0.08635,0 -0.152767,-0.0066 -0.06642,-0.0066 -0.119556,-0.02657 -0.05314,-0.01993 -0.08635,-0.02657 -0.03321,-0.01328 -0.07306,-0.05314 -0.03985,-0.03985 -0.05978,-0.05314 -0.01328,-0.01328 -0.05314,-0.06642 -0.03985,-0.05978 -0.05978,-0.0797 -0.159409,-0.192619 -0.504795,-0.192619 -0.763833,0 -1.574161,0.723982 -0.557931,0.498152 -0.909959,1.17564 -0.352027,0.670845 -0.697413,1.707002 -0.378596,1.109219 0.01993,1.939474 0.219187,0.464942 0.650919,0.777117 0.438374,0.312176 0.956453,0.312176 0.704055,0 1.447963,-0.710698 l -0.132841,0.797044 q -0.418448,0.365312 -0.723981,0.677488 -0.298892,0.318817 -0.763834,0.843538 -0.225829,0.252397 -0.445016,0.564572 -0.212545,0.318818 -0.312176,0.491511 -0.09299,0.172693 -0.345385,0.611067 -0.438375,0.78376 -0.385238,1.481173 0.03321,0.371954 0.179335,0.650919 0.152766,0.278966 0.39188,0.431732 0.245755,0.159409 0.531362,0.232471 0.285608,0.07971 0.624351,0.07971 z m -0.166051,-8.993312 q 0.05978,-0.39188 0.690772,-1.494457 0.584499,-1.036157 1.354974,-1.036157 l -0.498152,2.211796 q -0.02657,0.577857 -0.259039,1.149072 -0.298892,0.723982 -0.75055,0.723982 -0.259039,0 -0.418448,-0.278966 -0.245755,-0.431732 -0.119557,-1.27527 z m 1.434679,4.529866 q -0.0066,0.09299 -0.03985,0.42509 -0.03321,0.338744 -0.07306,0.571215 -0.03321,0.232471 -0.09299,0.42509 -0.09963,0.35867 -0.172692,0.571215 -0.07306,0.219187 -0.166051,0.445016 -0.08635,0.225829 -0.166051,0.345386 -0.0797,0.119556 -0.185977,0.219187 -0.106273,0.106272 -0.232471,0.146124 -0.119557,0.03985 -0.278965,0.03985 -0.445017,0 -0.22583,-0.630993 0.265682,-0.757192 0.71734,-1.494458 0.451658,-0.730623 0.9166,-1.062725 z"
         style=""
         id="path4165" />
    </g>
  </g>
</svg>
